# xmcd CD database file
#
# Track frame offsets:
#	150
#	16520
#	34528
#	51008
#	67330
#	88150
#	103690
#	123953
#	143958
#	164173
#
# Disc length: 2364 seconds
#
# Revision: 9
# Processed by: cddbd v1.5.2PL0 Copyright (c) Steve Scherf et al.
# Submitted via: CDex 1.70beta2
#
DISCID=87093a0a
DTITLE=Procol Harum - Procol's Ninth
DYEAR=1975
DGENRE=Pop
TTITLE0=Pandora's Box (Gary Brooker-Keith Reid)
TTITLE1=Fool's Gold (Gary Brooker-Keith Reid)
TTITLE2=Taking The Time (Gary Brooker-Keith Reid)
TTITLE3=The Unquiet Zone (Gary Brooker-Keith Reid)
TTITLE4=The Final Thrust (Gary Brooker-Keith Reid)
TTITLE5=I Keep Forgetting
TTITLE6=Without A Doubt (Gary Brooker-Keith Reid)
TTITLE7=The Pipers Tune (Gary Brooker-Keith Reid)
TTITLE8=Typewriter Torment (Gary Brooker-Keith Reid)
TTITLE9=Eight Days A Week (Lennon-McCartney(
EXTD=Gary Brooker: Voice, Piano and Music\nMike Grabham: Guitars\nAlan Cartwright: Bass\nB. J. Wilson: Drums\nChris Chopping: Organ\nKeith Reid: Words\n\nProduced by Jerry Leiber and Mike Stoller\n\nreleased 1975, CD released1995 YEAR: 1975
EXTT0=
EXTT1=
EXTT2=
EXTT3=
EXTT4=
EXTT5=By Jerry Leiber and Mike Stoller\nPublisched by Trio Music Except
EXTT6=
EXTT7=
EXTT8=
EXTT9=By John Lennen and Paul McCartney\nPublished by Nothern Songs
PLAYORDER=
